<svg width="80" height="20" viewBox="0 0 80 20" fill="none" xmlns="http://www.w3.org/2000/svg">
<path d="M78.1908 15.6069C77.5935 15.6069 77.1455 15.4806 76.8469 15.2279C76.5597 14.9752 76.4161 14.5846 76.4161 14.0562C76.4161 13.5163 76.5597 13.1201 76.8469 12.8673C77.1455 12.6146 77.5935 12.4883 78.1908 12.4883C78.7996 12.4883 79.2534 12.6146 79.552 12.8673C79.8507 13.1201 80 13.5163 80 14.0562C80 15.09 79.397 15.6069 78.1908 15.6069Z" fill="#232323"/>
<path d="M75.12 18.9255C74.293 19.0909 73.8598 19.1957 73.2754 19.2398C72.7019 19.2839 72.1892 19.2839 71.7371 19.2398C71.296 19.1957 70.8659 19.1295 70.4469 19.0413C70.0278 18.9531 69.5757 18.8649 69.0905 18.7766C68.6053 18.6884 68.0319 18.6223 67.3702 18.5781C66.7086 18.534 67.2609 18.534 66.3016 18.5781V15.7383C66.5993 15.7603 66.6961 15.7658 67.1372 15.7548L67.6329 15.714C68.1512 15.6809 68.5171 15.6059 69.0243 15.5398C69.5316 15.4736 69.9947 15.3909 70.4138 15.2916C70.8438 15.1814 71.1802 15.0546 71.4228 14.9112V14.4236C70.5185 14.6883 69.708 14.8151 68.9913 14.804C68.2855 14.793 67.668 14.6662 67.1387 14.4236C66.6204 14.181 66.1958 13.8392 65.865 13.3981C65.5342 12.957 65.2861 12.4387 65.1207 11.8432C64.9553 11.2477 64.8726 10.5971 64.8726 9.89138C64.8726 9.08639 64.9828 8.34205 65.2034 7.65835C65.4239 6.96363 65.7547 6.36264 66.1958 5.85539C66.6369 5.34813 67.1883 4.95115 67.8499 4.66444C68.5116 4.37773 69.289 4.23438 70.1822 4.23438C71.2849 4.23438 72.2223 4.46043 72.9942 4.91255C73.7771 5.36467 74.3726 6.00977 74.7806 6.84785C75.1996 7.68592 75.4092 8.68941 75.4092 9.8583C75.4092 10.9169 75.2603 11.8046 74.9625 12.5214C74.6648 13.2271 74.2513 14.0731 73.722 14.5142C73.2037 14.9553 72.5862 15.2972 71.8694 15.5398C71.1636 15.7713 70.3972 15.9367 69.5702 16.036V16.9406C70.1767 17.0067 70.7281 17.0619 71.2243 17.106C71.7205 17.1501 72.1947 17.1722 72.6468 17.1722C73.0989 17.1722 73.5455 17.1446 73.9866 17.0895C74.4277 17.0343 74.6238 16.9406 75.12 16.8083V18.9255ZM70.1988 13.5469C70.7722 13.5469 71.2463 13.4201 71.6213 13.1665C71.9962 12.9018 72.2719 12.5104 72.4483 11.9921C72.6358 11.4738 72.7295 10.8232 72.7295 10.0403C72.7295 9.23526 72.6303 8.56259 72.4318 8.02225C72.2443 7.48192 71.9521 7.07391 71.5551 6.79822C71.1692 6.51151 70.6839 6.36816 70.0995 6.36816C69.5481 6.36816 69.0795 6.506 68.6935 6.78168C68.3186 7.04634 68.0374 7.44332 67.8499 7.97263C67.6625 8.50194 67.5687 9.16358 67.5687 9.95755C67.5687 10.7515 67.6625 11.4187 67.8499 11.959C68.0484 12.4883 68.3462 12.8853 68.7431 13.15C69.1401 13.4146 69.6253 13.5469 70.1988 13.5469Z" fill="#232323"/>
<path d="M60.2558 15.3831V4.52809H63.2331V15.3831H60.2558ZM61.7651 2.89467C61.1862 2.89467 60.7382 2.7775 60.4212 2.54317C60.1179 2.29506 59.9663 1.93667 59.9663 1.46801C59.9663 0.985566 60.1179 0.620286 60.4212 0.372172C60.7382 0.124057 61.1862 0 61.7651 0C62.3579 0 62.8058 0.124057 63.1091 0.372172C63.4261 0.620286 63.5846 0.985566 63.5846 1.46801C63.5846 1.92289 63.4261 2.27438 63.1091 2.5225C62.8058 2.77061 62.3579 2.89467 61.7651 2.89467Z" fill="#232323"/>
<path d="M51.3473 15.5638C50.7408 15.5638 50.2032 15.4467 49.7345 15.2123C49.2659 14.9642 48.9006 14.6127 48.6387 14.1578C48.3768 13.703 48.2458 13.1378 48.2458 12.4624C48.2458 11.8697 48.3561 11.3734 48.5767 10.9737C48.811 10.574 49.1487 10.25 49.5898 10.0019C50.0309 9.75381 50.5754 9.54705 51.2232 9.38164C51.8711 9.21623 52.6085 9.0715 53.4356 8.94744C53.8767 8.87852 54.2351 8.81649 54.5107 8.76135C54.8002 8.69243 55.0139 8.58905 55.1517 8.45121C55.2895 8.29958 55.3585 8.08593 55.3585 7.81025C55.3585 7.42429 55.2206 7.09347 54.9449 6.81779C54.6693 6.54211 54.2351 6.40427 53.6423 6.40427C53.2426 6.40427 52.8704 6.47319 52.5258 6.61103C52.195 6.74887 51.9055 6.95563 51.6574 7.23131C51.4231 7.507 51.2508 7.85849 51.1405 8.2858L48.5146 7.47943C48.6801 6.91428 48.9144 6.42494 49.2176 6.01142C49.5347 5.59789 49.9137 5.25329 50.3548 4.97761C50.7959 4.68814 51.299 4.47449 51.8642 4.33664C52.4293 4.1988 53.0427 4.12988 53.7044 4.12988C54.7657 4.12988 55.6273 4.30218 56.2889 4.64679C56.9643 4.97761 57.4674 5.5014 57.7983 6.21818C58.1291 6.92117 58.2945 7.83092 58.2945 8.94744V10.8083C58.2945 11.2907 58.3014 11.7801 58.3152 12.2763C58.3427 12.7725 58.3703 13.2757 58.3979 13.7857C58.4392 14.2819 58.4806 14.7781 58.5219 15.2744H55.896C55.8409 14.9298 55.7858 14.5369 55.7306 14.0958C55.6893 13.6409 55.6548 13.1861 55.6273 12.7312H55.2551C55.0621 13.255 54.7864 13.7305 54.428 14.1578C54.0696 14.5852 53.6286 14.9298 53.1048 15.1917C52.5947 15.4398 52.0089 15.5638 51.3473 15.5638ZM52.6085 13.4135C52.8704 13.4135 53.1323 13.3653 53.3942 13.2688C53.6699 13.1723 53.9318 13.0413 54.1799 12.8759C54.4418 12.6967 54.6761 12.4762 54.8829 12.2143C55.1035 11.9524 55.2826 11.656 55.4205 11.3252L55.3791 9.5884L55.8547 9.69178C55.6066 9.87098 55.3171 10.0157 54.9863 10.126C54.6555 10.2225 54.3109 10.2983 53.9525 10.3534C53.6079 10.4086 53.2633 10.4706 52.9187 10.5395C52.5741 10.6084 52.2639 10.698 51.9882 10.8083C51.7263 10.9186 51.5127 11.0702 51.3473 11.2632C51.1957 11.4424 51.1198 11.6974 51.1198 12.0282C51.1198 12.4555 51.2577 12.7932 51.5334 13.0413C51.809 13.2894 52.1674 13.4135 52.6085 13.4135Z" fill="#232323"/>
<path d="M29.7831 15.3828V8.43555V4.52775H32.1608V7.77391H32.5537C32.7467 6.97443 33.0017 6.31969 33.3187 5.80967C33.6357 5.28588 34.0148 4.89303 34.4559 4.63113C34.9108 4.36923 35.4415 4.23828 36.048 4.23828C36.6958 4.23828 37.2334 4.38301 37.6607 4.67248C38.088 4.96195 38.4188 5.36858 38.6532 5.89238C38.8875 6.40239 39.0391 7.02957 39.108 7.77391H39.4389C39.6456 6.96065 39.9213 6.29212 40.2659 5.76832C40.6243 5.24452 41.0447 4.85857 41.5272 4.61045C42.0234 4.36234 42.5679 4.23828 43.1606 4.23828C43.7533 4.23828 44.2702 4.35545 44.7113 4.58978C45.1662 4.82411 45.5452 5.1756 45.8485 5.64426C46.1517 6.09914 46.3792 6.67807 46.5308 7.38106C46.6824 8.07027 46.7582 8.86975 46.7582 9.7795V15.3828H43.7809V10.1517C43.7809 9.40733 43.7188 8.78705 43.5948 8.29082C43.4707 7.7808 43.2777 7.40174 43.0159 7.15363C42.754 6.90551 42.4162 6.78145 42.0027 6.78145C41.5478 6.78145 41.155 6.93997 40.8242 7.25701C40.4934 7.56026 40.2315 7.98067 40.0385 8.51826C39.8455 9.05584 39.7421 9.66923 39.7283 10.3584V15.3828H36.813V10.2344C36.813 9.46247 36.7441 8.8284 36.6062 8.33217C36.4684 7.82216 36.2685 7.4362 36.0066 7.1743C35.7447 6.9124 35.4139 6.78145 35.0142 6.78145C34.5455 6.78145 34.1458 6.93997 33.8149 7.25701C33.4841 7.56026 33.2291 7.98757 33.0499 8.53893C32.8707 9.0903 32.7742 9.70369 32.7605 10.3791V15.3828H29.7831Z" fill="#232323"/>
<path d="M23.3629 15.6722C22.4669 15.6722 21.6674 15.5482 20.9644 15.3C20.2752 15.0519 19.6894 14.6935 19.2069 14.2249C18.7245 13.7562 18.3523 13.1773 18.0904 12.4881C17.8423 11.7989 17.7183 11.0201 17.7183 10.1517C17.7183 9.29706 17.8354 8.51136 18.0698 7.79459C18.3179 7.06403 18.6763 6.43685 19.1449 5.91305C19.6136 5.37547 20.1856 4.96195 20.861 4.67248C21.5365 4.38301 22.3015 4.23828 23.1561 4.23828C23.9832 4.23828 24.7206 4.37612 25.3685 4.6518C26.0163 4.9137 26.5539 5.31344 26.9812 5.85102C27.4223 6.38861 27.7393 7.05025 27.9323 7.83594C28.1391 8.60785 28.2149 9.49693 28.1597 10.5032L19.6411 10.5859V8.95246L26.4436 8.89043L25.3891 9.71748C25.4856 8.98692 25.4374 8.38731 25.2444 7.91865C25.0514 7.44999 24.7688 7.10538 24.3967 6.88484C24.0383 6.66429 23.6385 6.55402 23.1975 6.55402C22.6737 6.55402 22.2119 6.69186 21.8122 6.96754C21.4124 7.24322 21.1023 7.64986 20.8817 8.18744C20.6612 8.71123 20.5509 9.3453 20.5509 10.0896C20.5509 11.2613 20.8059 12.1228 21.3159 12.6742C21.8397 13.2255 22.522 13.5012 23.3629 13.5012C23.7488 13.5012 24.0727 13.453 24.3346 13.3565C24.6103 13.2462 24.8309 13.1084 24.9963 12.943C25.1755 12.7776 25.3133 12.5915 25.4098 12.3847C25.5201 12.1779 25.6097 11.9712 25.6786 11.7644L28.2631 12.3227C28.1391 12.8327 27.953 13.2945 27.7049 13.708C27.4705 14.1077 27.1535 14.4592 26.7538 14.7625C26.354 15.0519 25.8716 15.2725 25.3064 15.4241C24.7551 15.5895 24.1072 15.6722 23.3629 15.6722Z" fill="#232323"/>
<path d="M2.68791 15.3828L0 4.52783H3.10143L4.63147 12.4806H5.02432L6.84382 4.52783H10.4208L12.3023 12.4806H12.6952L14.1839 4.52783H17.2233L14.5147 15.3828H10.4208L8.72536 6.94695H8.37386L6.76112 15.3828H2.68791Z" fill="#232323"/>
</svg>
